<svg width="26px" height="28px" viewBox="0 0 26 28" version="1.1"
  xmlns="http://www.w3.org/2000/svg"
  xmlns:xlink="http://www.w3.org/1999/xlink">
  <g stroke="none" stroke-width="1" fill="none" fill-rule="evenodd">
    <g transform="translate(-29.000000, -23.000000)" fill="#FFC220">
      <g transform="translate(0.000000, -1.000000)">
        <g transform="translate(26.000000, 22.000000)">
          <path d="M15.992163,2 C14.929663,2 14.085913,2.59375 14.085913,3.3125 L14.742163,10.640625 C14.804663,11.078125 15.351538,11.421875 15.992163,11.421875 C16.648413,11.421875 17.195288,11.078125 17.273413,10.640625 L17.914038,3.3125 C17.914038,2.59375 17.070288,2 15.992163,2 Z M5.97653803,8 C5.35153803,7.640625 4.41403803,8.078125 3.88278803,9 C3.33591303,9.921875 3.42966303,10.953125 4.07028803,11.3125 L10.726538,14.421875 C11.148413,14.5625 11.710913,14.265625 12.039038,13.703125 C12.367163,13.140625 12.335913,12.5 11.992163,12.21875 L5.97653803,8 Z M27.945288,11.3125 C28.570288,10.953125 28.664038,9.921875 28.132788,9 C27.585913,8.078125 26.648413,7.640625 26.023413,8 L20.007788,12.21875 C19.664038,12.5 19.632788,13.140625 19.960913,13.703125 C20.289038,14.265625 20.851538,14.5625 21.273413,14.421875 L27.945288,11.3125 Z M4.07028803,20.671875 C3.42966303,21.046875 3.33591303,22.078125 3.88278803,23 C4.41403803,23.921875 5.35153803,24.359375 5.97653803,24 L11.992163,19.78125 C12.335913,19.484375 12.367163,18.84375 12.039038,18.28125 C11.710913,17.71875 11.148413,17.421875 10.726538,17.578125 L4.07028803,20.671875 Z M21.273413,17.578125 C20.851538,17.421875 20.289038,17.71875 19.960913,18.28125 C19.632788,18.84375 19.664038,19.484375 20.007788,19.78125 L26.023413,24 C26.648413,24.359375 27.585913,23.921875 28.132788,23 C28.664038,22.078125 28.570288,21.046875 27.945288,20.671875 L21.273413,17.578125 Z M16.007788,20.578125 C15.351538,20.578125 14.804663,20.90625 14.742163,21.34375 L14.085913,28.671875 C14.085913,29.40625 14.929663,30 15.992163,30 C17.070288,30 17.914038,29.40625 17.914038,28.671875 L17.273413,21.34375 C17.195288,20.90625 16.648413,20.578125 16.007788,20.578125 Z"></path>
        </g>
      </g>
    </g>
  </g>
</svg>